<?xml version="1.0" standalone="no"?>
<!DOCTYPE svg PUBLIC "-//W3C//DTD SVG 20010904//EN"
 "http://www.w3.org/TR/2001/REC-SVG-20010904/DTD/svg10.dtd">
<svg version="1.0" xmlns="http://www.w3.org/2000/svg"
 width="1078.000000pt" height="1089.000000pt" viewBox="0 0 1078.000000 1089.000000"
 preserveAspectRatio="xMidYMid meet">

<g transform="translate(0.000000,1089.000000) scale(0.100000,-0.100000)"
fill="#000000" stroke="none">
<path d="M5245 10374 c-33 -8 -72 -17 -87 -21 -15 -3 -26 -9 -23 -13 6 -9 -61
-24 -175 -40 -86 -12 -110 -18 -110 -29 0 -4 -33 -21 -72 -37 -40 -16 -77 -34
-83 -40 -5 -7 -32 -22 -59 -34 -27 -12 -63 -35 -80 -51 -17 -16 -46 -32 -63
-35 -18 -3 -33 -10 -33 -15 0 -5 -12 -9 -27 -9 -35 1 -306 -52 -313 -61 -3 -3
-37 -14 -77 -23 -40 -10 -77 -24 -84 -32 -6 -7 -36 -25 -67 -40 -31 -14 -62
-33 -70 -40 -8 -8 -26 -21 -42 -29 -62 -32 -150 -97 -150 -110 0 -8 -9 -19
-19 -24 -10 -6 -36 -34 -57 -63 -21 -29 -49 -61 -61 -71 -13 -10 -23 -24 -23
-30 0 -7 -11 -23 -25 -37 -40 -40 -85 -97 -85 -106 0 -5 -15 -26 -33 -47 -51
-59 -77 -94 -77 -104 0 -6 -17 -34 -38 -64 -80 -115 -81 -118 -71 -205 22
-196 27 -224 48 -250 26 -34 26 -41 -3 -101 -13 -26 -31 -68 -41 -93 -10 -25
-21 -54 -26 -65 -4 -11 -22 -54 -39 -95 -17 -41 -31 -77 -32 -80 0 -3 -4 -15
-9 -28 -5 -13 -12 -34 -15 -48 -3 -13 -10 -27 -15 -30 -5 -3 -9 -12 -9 -19 0
-8 -11 -38 -24 -67 -13 -29 -27 -70 -31 -91 -14 -73 34 -181 96 -221 21 -13
28 -24 23 -35 -6 -16 -20 -136 -49 -446 -8 -88 -17 -180 -19 -205 -3 -25 -7
-130 -10 -235 -5 -187 -3 -219 29 -440 9 -60 24 -172 35 -247 10 -76 23 -145
28 -155 5 -10 13 -38 17 -63 4 -25 16 -76 27 -115 29 -99 30 -116 7 -122 -10
-3 -19 -9 -19 -14 0 -4 -5 -20 -12 -36 -6 -15 -10 -32 -9 -37 1 -5 -4 -6 -12
-3 -10 4 -13 -2 -9 -21 5 -24 6 -25 13 -7 8 20 8 20 10 0 7 -64 8 -91 7 -195
-3 -278 0 -591 7 -666 5 -55 4 -88 -4 -102 -9 -16 -9 -22 -1 -22 7 0 10 -6 7
-12 -2 -7 2 -25 10 -41 11 -22 13 -90 10 -360 -4 -310 -9 -387 -37 -622 -6
-49 -15 -146 -20 -215 -5 -69 -11 -136 -15 -150 -8 -32 -7 -523 1 -558 17 -77
98 -304 113 -315 9 -6 43 -43 76 -82 87 -101 128 -135 205 -170 38 -17 95 -50
127 -72 32 -22 63 -42 68 -44 30 -12 115 -75 115 -86 0 -18 -48 -40 -121 -57
-35 -8 -91 -22 -124 -31 -33 -9 -96 -25 -140 -35 -44 -10 -109 -26 -145 -35
-115 -29 -184 -46 -235 -56 -27 -6 -57 -16 -65 -23 -8 -7 -28 -20 -45 -28 -29
-15 -139 -76 -220 -124 -22 -12 -66 -37 -97 -54 -32 -16 -58 -35 -58 -42 0 -6
-19 -32 -42 -58 -24 -25 -59 -65 -78 -89 -19 -24 -64 -77 -100 -120 -89 -103
-108 -131 -119 -177 -11 -48 -32 -124 -61 -224 -12 -41 -24 -84 -27 -95 -3
-11 -18 -63 -34 -116 -16 -53 -38 -141 -48 -195 -42 -212 -61 -313 -61 -318 0
-4 1614 -6 3586 -6 l3587 0 -6 38 c-29 199 -76 437 -97 502 -5 14 -12 41 -15
60 -4 19 -17 69 -30 110 -12 41 -33 118 -45 170 -27 120 -38 148 -61 161 -11
5 -19 15 -19 21 0 11 -14 29 -145 184 -19 23 -35 47 -35 53 0 6 -4 11 -10 11
-5 0 -23 21 -41 46 -39 57 -99 112 -147 136 -21 10 -53 28 -72 39 -19 12 -59
35 -88 50 -30 16 -66 37 -80 47 -43 29 -120 58 -217 81 -49 12 -108 26 -130
33 -39 10 -103 26 -215 52 -30 7 -62 15 -70 19 -8 3 -46 12 -85 20 -38 8 -95
22 -125 30 -125 35 -135 48 -68 86 23 13 47 28 52 32 6 5 25 20 42 34 18 14
36 25 42 25 6 0 12 4 14 8 5 15 140 106 200 135 31 15 64 40 74 55 9 15 40 54
69 87 95 111 101 123 135 264 l33 134 -6 281 c-3 155 -10 306 -16 336 -10 51
-23 229 -40 530 -4 69 -9 130 -13 135 -3 6 -8 146 -9 311 -3 268 -1 303 13
318 9 9 21 16 26 16 5 0 16 7 23 16 12 15 11 16 -11 10 -19 -6 -21 -5 -10 3 8
6 25 11 37 11 21 0 63 35 63 52 0 5 -11 -2 -24 -16 -23 -26 -54 -36 -40 -14 4
6 -8 0 -28 -15 -19 -15 -38 -27 -41 -27 -6 0 -10 75 -26 535 -8 218 -8 321 -1
323 5 2 10 15 10 28 0 14 4 23 9 20 11 -7 31 40 34 82 1 17 7 32 13 32 7 0 9
10 6 25 -2 14 -9 25 -16 25 -15 -1 -51 -28 -52 -40 -4 -31 -7 -32 -13 -5 -3
17 -2 67 3 113 7 68 6 86 -7 100 -24 28 -27 54 -12 111 8 30 19 97 25 150 6
53 18 128 25 166 21 103 34 191 41 275 3 41 12 113 20 159 16 94 17 240 4 381
-23 243 -30 316 -33 330 -2 8 -7 33 -11 55 -4 22 -14 72 -21 110 -7 39 -15 97
-17 130 l-3 60 60 0 60 0 -2 70 c0 39 -4 86 -8 105 -5 30 -2 40 23 65 39 41
52 68 52 106 0 30 -55 213 -70 234 -4 6 -11 26 -15 45 -9 42 -32 95 -60 135
-24 37 -48 78 -70 125 -9 19 -31 58 -49 85 -18 28 -45 71 -60 98 -15 26 -31
47 -36 47 -6 0 -10 4 -10 9 0 6 -13 30 -30 54 -16 25 -30 49 -30 54 0 5 -13
13 -29 19 -42 16 -30 72 25 119 31 26 53 109 36 133 -7 9 -15 24 -19 32 -4 8
-17 26 -30 40 -13 14 -38 46 -55 71 -18 25 -47 56 -65 70 -19 13 -40 36 -48
51 -8 15 -36 49 -63 75 -26 27 -61 65 -79 85 -17 20 -54 49 -82 64 -28 14 -51
30 -51 34 0 5 -21 19 -46 32 -26 12 -49 28 -51 35 -3 6 -17 14 -32 18 -15 3
-38 16 -53 29 -37 35 -96 62 -150 70 -27 4 -48 11 -48 17 0 5 -11 8 -25 7 -14
-1 -25 -6 -25 -10 0 -4 -8 -8 -17 -8 -20 0 -73 -48 -73 -66 0 -6 -7 -14 -15
-18 -8 -3 -20 -17 -27 -31 -14 -32 -38 -32 -72 0 -15 14 -30 25 -35 25 -4 0
-16 8 -27 19 -11 10 -39 30 -62 45 -23 14 -42 31 -42 36 0 6 -5 10 -11 10 -10
0 -34 17 -96 69 -12 10 -42 27 -67 37 -25 11 -46 22 -46 25 0 3 -31 19 -70 34
-38 15 -70 31 -70 35 0 4 -33 19 -72 34 -40 16 -81 32 -91 38 -62 32 -503 55
-602 32z m-36 -1249 c-2 -3 -17 -21 -34 -40 -16 -20 -81 -89 -143 -154 -104
-107 -129 -138 -193 -238 -12 -18 -24 -33 -28 -33 -7 0 -31 -72 -31 -95 0 -13
26 -15 180 -15 99 0 180 4 180 9 0 5 35 11 78 14 133 8 466 47 491 58 14 6 59
14 100 19 42 5 112 14 156 20 44 7 96 14 115 16 19 3 37 8 40 12 3 4 59 18
125 30 66 13 140 31 165 41 25 10 70 26 100 36 30 9 63 26 73 36 10 10 32 26
49 35 17 9 41 28 55 42 l24 27 -5 -37 c-3 -20 -12 -56 -20 -80 -8 -23 -19 -68
-26 -98 -7 -30 -15 -62 -18 -70 -21 -60 20 -80 65 -32 16 16 45 36 65 45 20
10 38 21 40 25 3 9 114 62 129 62 10 0 -54 -139 -96 -205 -17 -27 -37 -65 -44
-82 -7 -18 -17 -33 -21 -33 -4 0 -11 -11 -14 -24 -3 -14 -14 -32 -23 -42 -13
-13 -14 -19 -5 -22 7 -2 10 -7 7 -12 -5 -8 65 -40 90 -40 8 0 15 -4 15 -10 0
-5 12 -10 28 -10 15 0 70 -9 122 -20 52 -12 115 -23 140 -26 25 -3 47 -10 50
-15 6 -8 54 -13 118 -10 18 0 31 5 28 9 -3 4 19 9 47 11 29 1 63 3 77 4 14 1
25 -2 25 -8 0 -5 -4 -9 -9 -7 -5 2 -4 -3 2 -11 8 -9 9 -24 1 -51 -20 -74 1
-335 30 -376 19 -27 22 -47 39 -315 8 -112 30 -227 60 -305 3 -8 7 -22 8 -30
1 -8 7 -28 13 -44 6 -15 16 -56 21 -90 5 -33 14 -89 20 -123 16 -97 30 -247
35 -378 6 -164 15 -497 14 -515 0 -8 -3 -190 -5 -404 -2 -214 -7 -450 -10
-525 -7 -167 -39 -381 -60 -397 -11 -9 -12 -13 -3 -16 8 -3 9 -12 4 -28 -8
-24 -8 -24 -16 -5 -6 17 -8 17 -8 3 -1 -10 -8 -18 -16 -18 -21 0 -19 -20 3
-21 10 0 12 -3 5 -6 -7 -2 -13 -9 -13 -15 0 -6 -11 -26 -25 -44 -14 -18 -25
-43 -24 -56 0 -13 -5 -48 -10 -78 -6 -30 -8 -63 -5 -74 4 -13 3 -16 -7 -11 -9
6 -11 3 -6 -8 4 -10 2 -16 -6 -14 -6 1 -13 -8 -15 -21 -2 -13 -10 -26 -17 -28
-7 -3 -16 -23 -20 -44 -4 -21 -15 -49 -26 -62 -19 -21 -19 -23 -2 -29 16 -7
16 -8 -2 -7 -11 0 -56 5 -100 11 -112 17 -191 69 -305 200 -47 53 -96 110
-110 125 -14 15 -39 44 -55 65 -107 138 -135 170 -175 196 -25 17 -51 31 -57
31 -7 0 -13 3 -13 8 0 4 -17 16 -37 27 -21 10 -58 33 -83 50 -25 17 -58 36
-73 43 -56 25 -85 55 -175 187 l-48 70 -81 8 c-64 7 -80 12 -76 23 3 8 12 14
21 14 31 0 -22 41 -65 50 -49 11 -164 -18 -198 -50 -12 -11 -26 -20 -33 -20
-20 0 -43 -42 -30 -57 6 -8 7 -13 0 -13 -5 0 -12 6 -15 14 -8 19 -45 9 -58
-15 -5 -11 -6 -19 -2 -19 4 -1 -4 -7 -19 -16 -19 -10 -33 -11 -45 -5 -53 27
-87 37 -128 36 -50 -2 -61 -8 -50 -25 6 -9 10 -9 16 1 7 12 9 12 9 0 0 -9 7
-11 21 -8 27 7 129 -13 129 -24 0 -5 -5 -9 -10 -9 -11 0 -24 -9 -58 -40 -10
-8 -26 -14 -36 -12 -20 4 -90 47 -114 69 -6 6 -21 15 -32 18 -13 4 -19 13 -16
27 2 15 -11 36 -39 65 -34 35 -53 45 -105 57 -67 16 -113 12 -146 -13 -19 -14
-19 -16 -3 -32 9 -9 23 -19 30 -22 8 -3 0 -6 -18 -6 -17 -1 -35 4 -38 9 -4 6
-12 10 -18 8 -7 -1 -31 2 -55 6 -23 4 -65 5 -92 1 -50 -7 -50 -7 -110 -98 -33
-51 -65 -101 -72 -111 -15 -23 -46 -54 -80 -78 -12 -10 -39 -30 -59 -45 -20
-16 -63 -46 -94 -68 -32 -22 -66 -48 -76 -58 -11 -9 -23 -17 -27 -17 -12 0
-83 -92 -197 -257 -49 -70 -198 -233 -246 -268 -45 -34 -119 -71 -154 -78 -49
-9 -157 -18 -132 -11 9 3 17 9 17 12 -1 14 -27 42 -39 42 -7 0 -10 4 -7 9 3 5
-2 26 -11 47 -9 22 -16 42 -15 46 1 4 -3 20 -9 35 -8 22 -12 25 -21 13 -8 -12
-9 -12 -4 2 3 10 0 20 -5 24 -7 4 -7 10 0 17 14 14 14 30 1 22 -10 -6 -14 12
-11 50 2 16 0 17 -8 6 -6 -10 -11 2 -16 44 -6 45 -12 59 -27 63 -13 3 -17 10
-12 24 4 13 2 18 -4 14 -8 -5 -18 7 -27 34 -1 3 -4 12 -8 20 -3 8 -8 29 -10
45 -3 17 -14 75 -26 130 -22 108 -33 207 -56 520 -13 172 -28 337 -39 410 -2
11 -10 37 -19 58 -17 40 -15 86 5 136 6 14 14 143 18 286 5 143 13 287 20 320
6 33 15 112 20 175 14 183 47 390 76 478 10 32 14 102 14 276 0 128 4 246 9
262 5 16 12 76 15 134 3 58 13 130 21 160 9 30 22 84 30 120 31 142 37 166 51
197 8 17 14 35 14 40 0 5 21 27 47 49 51 42 85 72 181 159 35 31 68 55 75 52
12 -4 22 -36 30 -94 6 -46 24 -95 66 -185 27 -57 37 -68 57 -68 14 0 27 7 31
18 4 9 41 68 82 131 42 62 81 122 87 133 6 10 20 27 30 38 11 10 39 45 63 79
24 34 47 61 51 61 4 0 19 11 33 24 14 13 49 37 77 52 27 15 50 30 50 34 0 4
25 19 55 34 30 14 55 31 55 35 0 5 34 20 75 32 41 13 75 27 75 30 0 4 37 20
83 35 45 15 84 30 87 35 3 4 30 18 61 32 30 13 75 38 99 56 24 17 49 31 57 31
7 0 21 9 30 20 10 11 22 20 27 20 5 0 7 -2 5 -5z m-79 -4045 c0 -5 -4 -10 -10
-10 -5 0 -10 5 -10 10 0 6 5 10 10 10 6 0 10 -4 10 -10z m590 -41 c0 -4 -9 -9
-20 -12 -12 -3 -20 0 -20 7 0 6 9 12 20 12 11 0 20 -3 20 -7z m-142 -454 c24
-32 68 -103 78 -125 4 -8 18 -28 30 -43 13 -15 31 -42 40 -60 8 -18 38 -50 65
-72 75 -61 170 -142 209 -180 20 -20 68 -47 115 -65 44 -17 93 -38 108 -46 16
-8 36 -14 46 -14 9 0 25 -6 36 -14 11 -7 36 -17 55 -21 19 -4 44 -13 55 -21
21 -13 72 -25 215 -48 47 -8 98 -19 114 -25 l29 -11 -7 -103 c-4 -56 -14 -131
-22 -167 -8 -36 -22 -99 -30 -141 -16 -87 -67 -199 -89 -199 -8 0 -15 -4 -15
-9 0 -5 -19 -19 -43 -30 -38 -18 -61 -21 -193 -21 -171 0 -216 11 -246 58 -18
29 -18 34 -3 97 8 36 33 105 56 153 51 110 49 136 -18 205 -44 45 -73 62 -218
127 -122 56 -307 100 -415 100 -63 0 -231 -36 -290 -62 -25 -11 -54 -23 -65
-28 -191 -77 -294 -149 -335 -234 -23 -47 -16 -93 32 -195 88 -188 77 -240
-60 -275 -140 -35 -253 -14 -343 63 -75 64 -96 117 -155 381 -14 64 -23 120
-27 181 l-5 67 37 10 c20 6 56 14 81 17 53 9 180 46 230 68 95 42 109 47 123
47 9 0 17 3 19 8 5 11 67 42 84 42 8 0 36 11 62 25 26 14 52 25 58 25 7 0 34
20 62 45 27 25 53 45 57 45 4 0 24 18 46 40 22 22 43 40 47 40 16 1 120 107
127 130 4 14 11 30 16 36 5 6 29 49 53 96 57 108 93 161 114 169 15 6 46 -19
80 -66z m1992 -185 c0 -5 -2 -10 -4 -10 -3 0 -8 5 -11 10 -3 6 -1 10 4 10 6 0
11 -4 11 -10z m-290 -570 c0 -5 -5 -10 -11 -10 -5 0 -7 5 -4 10 3 6 8 10 11
10 2 0 4 -4 4 -10z m-30 -10 c0 -5 -4 -10 -10 -10 -5 0 -10 5 -10 10 0 6 5 10
10 10 6 0 10 -4 10 -10z m-30 -10 c0 -6 -8 -10 -17 -8 -10 2 -17 -3 -15 -9 1
-7 -2 -13 -8 -13 -5 0 -10 6 -10 13 0 8 -3 7 -10 -3 -6 -9 -6 -18 0 -24 11
-11 -6 -36 -25 -36 -8 0 -16 -6 -18 -12 -3 -7 -6 4 -6 25 -1 20 4 37 10 37 5
0 7 4 4 10 -3 5 7 12 22 16 15 3 33 7 38 9 21 7 35 5 35 -5z m-3440 -30 c0 -5
-2 -10 -4 -10 -3 0 -8 5 -11 10 -3 6 -1 10 4 10 6 0 11 -4 11 -10z m85 -11 c4
-5 11 -7 16 -3 6 3 21 -4 35 -17 25 -23 32 -71 15 -97 -5 -9 -7 2 -5 28 2 32
0 40 -9 31 -18 -18 -36 -13 -43 14 -3 14 -11 25 -18 26 -6 1 -20 2 -30 3 -11
0 -21 6 -23 11 -4 13 54 17 62 4z m52 -91 c-3 -8 -6 -5 -6 6 -1 11 2 17 5 13
3 -3 4 -12 1 -19z"/>
<path d="M6680 7310 c-36 -5 -118 -14 -182 -21 -65 -7 -118 -16 -118 -21 0 -4
-26 -8 -57 -8 -86 -1 -525 -49 -533 -59 -3 -3 -18 -13 -35 -21 -28 -15 -30
-20 -32 -75 -1 -47 4 -72 24 -112 30 -62 35 -63 173 -37 47 8 103 18 125 21
22 3 42 10 45 14 3 4 46 13 95 20 50 6 131 20 180 31 103 22 174 36 225 43 64
10 369 24 407 19 89 -11 223 -39 223 -46 0 -4 4 -8 10 -8 5 0 35 -12 67 -27
32 -15 62 -26 66 -25 5 1 6 -1 3 -6 -2 -4 4 -14 15 -20 17 -11 21 -9 28 10 7
18 4 29 -13 48 -12 14 -30 37 -39 53 -10 15 -23 27 -30 27 -6 0 -33 21 -58 48
-46 46 -65 60 -124 91 -16 9 -32 19 -35 23 -3 4 -23 15 -45 24 -47 19 -281 28
-385 14z"/>
<path d="M4035 7270 c-3 -5 -18 -10 -31 -10 -43 0 -156 -51 -182 -81 -13 -16
-28 -29 -34 -29 -19 0 -198 -188 -198 -208 0 -25 25 -36 42 -19 11 11 128 70
193 98 42 17 102 29 153 29 28 0 52 5 52 10 0 6 53 10 140 10 87 0 140 -4 140
-10 0 -5 24 -10 53 -10 29 0 88 -5 132 -11 44 -5 138 -18 208 -27 71 -10 125
-21 121 -25 -4 -4 -1 -7 7 -8 8 0 25 -2 39 -4 133 -16 237 -27 297 -32 67 -5
72 -4 86 18 8 13 22 47 30 76 13 42 13 54 2 63 -7 6 -15 23 -18 38 -7 34 -42
52 -102 52 -25 0 -45 4 -45 9 0 5 -51 12 -112 16 -62 4 -137 11 -166 15 -28 5
-157 14 -285 21 -127 6 -236 16 -241 20 -14 13 -273 11 -281 -1z"/>
<path d="M6430 6570 c-70 -9 -183 -38 -190 -49 -3 -4 -37 -20 -77 -36 -40 -15
-70 -31 -68 -35 3 -4 -6 -15 -18 -23 -23 -15 -48 -89 -39 -115 7 -21 40 -13
46 11 8 34 106 129 142 139 17 4 19 -1 20 -67 0 -64 5 -81 39 -146 21 -41 43
-78 49 -82 9 -7 123 -5 498 7 11 0 23 20 38 61 32 93 40 126 40 184 l0 54 37
-6 c20 -4 39 -10 42 -14 3 -4 24 -17 46 -28 22 -11 46 -27 55 -35 8 -8 28 -23
43 -33 44 -29 34 -107 -14 -107 -9 0 -19 -7 -23 -15 -3 -9 0 -15 9 -15 7 0 20
7 29 15 8 8 20 15 26 15 14 0 49 40 50 58 0 6 5 12 10 12 6 0 10 11 10 25 0
14 -4 25 -10 25 -5 0 -10 6 -10 14 0 8 -12 24 -27 35 -16 12 -33 24 -38 28
-26 20 -93 52 -122 58 -18 3 -33 10 -33 15 0 13 -24 19 -162 40 -132 20 -291
24 -398 10z m127 -56 c-3 -3 -12 -4 -19 -1 -8 3 -5 6 6 6 11 1 17 -2 13 -5z
m-38 -8 c-10 -10 -55 -13 -74 -5 -14 5 -6 8 29 8 27 1 47 -1 45 -3z"/>
<path d="M4245 6538 c-49 -5 -92 -13 -95 -18 -3 -4 -34 -16 -69 -25 -63 -16
-94 -30 -118 -52 -7 -6 -26 -14 -42 -18 -16 -3 -35 -13 -42 -21 -6 -8 -17 -14
-23 -14 -22 -1 -65 -75 -59 -101 17 -65 81 -126 122 -116 13 3 13 5 -4 12 -36
14 -55 38 -55 66 0 29 43 89 64 89 7 0 26 12 41 26 32 29 88 56 121 58 19 1
22 -5 28 -71 3 -46 15 -91 31 -124 13 -28 22 -56 19 -60 -7 -12 -166 -11 -201
1 -26 9 -27 9 -9 -5 11 -8 35 -15 53 -15 19 0 55 -5 80 -11 28 -8 47 -8 52 -2
7 10 77 17 91 8 18 -11 281 -18 435 -12 25 1 57 26 61 47 0 3 11 28 23 55 14
31 25 79 28 126 5 73 7 76 29 71 12 -2 31 -13 40 -23 9 -10 21 -19 26 -19 15
0 68 -63 68 -81 0 -10 6 -19 13 -22 10 -4 10 -7 0 -18 -15 -15 -17 -39 -4 -39
16 0 34 70 28 110 -5 38 -34 89 -50 90 -5 0 -22 9 -39 21 -16 12 -57 30 -90
40 -34 10 -64 23 -68 29 -17 27 -294 38 -485 18z m255 -53 c24 -14 24 -14 -15
-8 -54 8 -80 22 -40 22 17 0 41 -6 55 -14z"/>
<path d="M6054 6274 c3 -9 6 -18 6 -20 0 -3 4 -3 10 1 11 7 2 35 -12 35 -6 0
-7 -7 -4 -16z"/>
<path d="M6101 6234 c0 -11 3 -14 6 -6 3 7 2 16 -1 19 -3 4 -6 -2 -5 -13z"/>
<path d="M7025 6210 c-8 -13 25 -13 45 0 12 8 9 10 -12 10 -15 0 -30 -4 -33
-10z"/>
<path d="M6935 6203 c-11 -2 -27 -7 -35 -10 -8 -3 -19 -5 -23 -4 -5 1 -6 -3
-2 -8 4 -7 15 -7 31 -1 14 6 41 10 60 10 19 0 34 5 34 10 0 10 -28 11 -65 3z"/>
<path d="M6195 6185 c44 -15 82 -19 71 -8 -3 4 -14 8 -24 9 -9 2 -33 5 -52 8
l-35 5 40 -14z"/>
<path d="M4850 6180 c0 -5 7 -7 15 -4 8 4 15 8 15 10 0 2 -7 4 -15 4 -8 0 -15
-4 -15 -10z"/>
<path d="M4818 6163 c7 -3 16 -2 19 1 4 3 -2 6 -13 5 -11 0 -14 -3 -6 -6z"/>
<path d="M4716 6151 c-4 -5 12 -7 36 -4 57 8 61 13 10 13 -22 0 -43 -4 -46 -9z"/>
<path d="M5350 5047 c0 -20 18 -42 27 -34 4 5 1 12 -6 17 -11 6 -10 9 5 12 17
3 17 4 -3 10 -14 4 -23 2 -23 -5z"/>
<path d="M5600 5049 c0 -5 5 -7 10 -4 6 3 10 8 10 11 0 2 -4 4 -10 4 -5 0 -10
-5 -10 -11z"/>
<path d="M5610 5030 c-11 -7 -11 -10 -2 -10 7 0 10 -4 7 -10 -3 -6 1 -7 10 -3
12 4 13 8 4 13 -8 6 -6 9 7 13 12 3 13 5 4 6 -8 0 -22 -4 -30 -9z"/>
<path d="M5396 5007 c3 -10 9 -15 12 -12 3 3 0 11 -7 18 -10 9 -11 8 -5 -6z"/>
<path d="M3420 4515 c0 -8 4 -15 10 -15 5 0 7 7 4 15 -4 8 -8 15 -10 15 -2 0
-4 -7 -4 -15z"/>
<path d="M3885 3730 c-3 -5 -2 -10 4 -10 5 0 13 5 16 10 3 6 2 10 -4 10 -5 0
-13 -4 -16 -10z"/>
<path d="M8160 6245 c0 -8 4 -15 10 -15 5 0 7 7 4 15 -4 8 -8 15 -10 15 -2 0
-4 -7 -4 -15z"/>
<path d="M2786 6158 c3 -4 11 -5 19 -1 21 7 19 12 -4 10 -11 0 -18 -5 -15 -9z"/>
<path d="M2601 6044 c0 -11 3 -14 6 -6 3 7 2 16 -1 19 -3 4 -6 -2 -5 -13z"/>
<path d="M8040 4759 c0 -5 5 -7 10 -4 6 3 10 8 10 11 0 2 -4 4 -10 4 -5 0 -10
-5 -10 -11z"/>
<path d="M3035 4626 c46 -41 55 -44 48 -15 -4 14 -8 17 -13 9 -6 -9 -10 -9
-16 2 -5 8 -20 21 -34 27 -17 9 -13 2 15 -23z"/>
</g>
</svg>
